<?xml version="1.0" standalone="no"?>
<!DOCTYPE svg PUBLIC "-//W3C//DTD SVG 20010904//EN"
 "http://www.w3.org/TR/2001/REC-SVG-20010904/DTD/svg10.dtd">
<svg version="1.0" xmlns="http://www.w3.org/2000/svg"
 width="253.000000pt" height="253.000000pt" viewBox="0 0 253.000000 253.000000"
 preserveAspectRatio="xMidYMid meet">
<metadata>
Created by potrace 1.11, written by Peter Selinger 2001-2013
</metadata>
<g transform="translate(0.000000,253.000000) scale(0.100000,-0.100000)"
fill="#000000" stroke="none">
<path d="M1290 2200 c-16 -16 -34 -30 -40 -30 -5 0 -9 -3 -9 -7 3 -18 -2 -34
-8 -30 -5 2 -33 -23 -65 -55 -31 -32 -54 -58 -52 -58 2 0 -5 -9 -16 -20 -11
-11 -20 -25 -20 -31 0 -5 -4 -7 -10 -4 -5 3 -10 -3 -10 -14 0 -11 -6 -24 -13
-28 -17 -10 -58 -94 -51 -105 3 -4 1 -8 -5 -8 -5 0 -8 -9 -6 -20 2 -11 1 -20
-3 -20 -4 0 -9 -12 -10 -26 -1 -15 -6 -32 -11 -38 -5 -6 -12 -26 -16 -43 -3
-18 -10 -33 -14 -33 -4 0 -7 -10 -8 -22 -1 -11 -8 -25 -15 -29 -7 -5 -9 -9 -4
-9 5 0 3 -6 -3 -13 -6 -8 -8 -17 -4 -20 3 -4 1 -7 -5 -7 -6 0 -9 -9 -7 -20 2
-11 0 -18 -6 -15 -5 4 -9 0 -9 -9 0 -8 -6 -17 -12 -19 -10 -4 -10 -6 -1 -6 8
-1 7 -10 -5 -31 -14 -25 -23 -30 -49 -28 -17 1 -29 6 -27 10 3 4 -2 8 -11 8
-9 0 -14 4 -11 9 4 5 1 11 -5 13 -5 2 -13 22 -16 46 -3 23 -10 42 -15 42 -6 0
-8 6 -5 14 3 8 0 22 -8 32 -7 10 -11 24 -8 31 4 9 0 11 -11 7 -9 -3 -16 -10
-16 -15 0 -5 -4 -8 -9 -6 -5 1 -34 -24 -64 -55 -30 -31 -58 -54 -62 -50 -4 4
-5 2 -3 -3 4 -14 -27 -57 -35 -48 -4 3 -7 -3 -7 -15 0 -12 -5 -22 -12 -22 -6
0 -8 -3 -5 -7 4 -3 2 -12 -4 -20 -6 -7 -8 -13 -3 -13 5 0 3 -4 -5 -9 -13 -8
-17 -19 -23 -68 -1 -7 -5 -13 -10 -13 -4 0 -8 -8 -8 -18 0 -10 -8 -28 -17 -41
-11 -16 -12 -22 -3 -16 8 5 4 -5 -8 -22 -12 -17 -19 -33 -15 -37 3 -3 1 -6 -6
-6 -7 0 -10 -4 -6 -9 3 -5 1 -12 -5 -16 -6 -4 -8 -11 -5 -16 4 -5 2 -9 -2 -9
-5 0 -24 -30 -43 -67 -19 -38 -39 -71 -45 -75 -5 -4 -7 -8 -2 -8 4 0 0 -11 -9
-25 -9 -14 -13 -25 -9 -25 5 0 1 -8 -8 -18 -10 -10 -14 -22 -10 -25 3 -4 0 -7
-7 -7 -7 0 -10 -3 -7 -7 4 -3 -1 -15 -10 -26 -10 -11 -12 -17 -6 -13 9 5 11 2
7 -8 -3 -9 -10 -16 -14 -16 -4 0 -11 -12 -15 -27 -3 -15 -18 -38 -33 -51 -15
-13 -20 -21 -12 -17 8 3 3 -3 -12 -15 -16 -12 -28 -29 -28 -38 0 -13 -2 -14
-9 -4 -6 11 -10 10 -15 -5 -4 -10 -7 -20 -6 -22 1 -2 -4 -8 -12 -12 -9 -6 -6
-9 12 -10 14 -1 29 0 35 1 5 1 -1 -9 -15 -23 -14 -13 -27 -24 -30 -24 -3 0
-11 -1 -18 -2 -7 0 -10 -5 -7 -11 3 -5 1 -10 -5 -10 -14 0 10 -27 25 -27 21
-1 40 -8 47 -18 4 -5 57 -11 119 -11 62 -1 116 -7 121 -12 8 -8 17 -8 31 -1
14 8 17 8 13 0 -4 -6 4 -13 19 -17 14 -3 25 -11 25 -16 0 -6 6 -6 14 1 9 8 16
8 20 2 7 -10 37 -7 58 5 6 4 8 3 5 -2 -3 -6 11 -10 34 -10 21 0 39 4 39 10 0
7 3 8 8 1 9 -12 19 -14 76 -17 25 0 43 -5 40 -10 -5 -8 2 -9 129 -11 37 -1 67
-4 67 -8 0 -3 7 -6 15 -6 8 0 15 4 15 9 0 5 9 4 19 -2 11 -5 26 -7 34 -4 9 3
25 1 36 -6 14 -7 21 -7 21 0 0 5 5 10 11 10 5 0 8 -4 5 -8 -3 -5 1 -9 9 -9 8
0 15 4 15 9 0 5 6 6 13 1 6 -4 32 -9 57 -10 25 -2 65 -4 90 -6 25 -1 51 -6 59
-11 9 -6 12 -5 7 2 -7 12 32 11 52 -2 7 -4 12 -2 12 6 0 9 3 9 8 2 4 -6 19
-10 35 -9 15 1 27 -2 27 -8 0 -5 7 -4 16 4 10 8 18 9 22 3 9 -14 135 -13 145
0 5 7 10 6 17 -4 9 -13 10 -13 10 0 0 13 1 13 10 0 9 -13 10 -13 10 0 0 12 2
13 9 1 7 -11 9 -11 13 0 4 12 8 12 20 1 13 -10 18 -10 24 -1 5 8 3 9 -6 4 -8
-5 -11 -4 -6 3 4 7 17 8 36 2 19 -5 28 -5 25 1 -4 5 1 9 10 9 10 0 13 -5 9
-12 -5 -7 -3 -8 7 -2 8 5 25 10 37 12 17 2 22 -1 16 -10 -5 -9 -2 -8 10 1 10
8 37 16 60 16 23 1 48 5 56 10 9 6 11 4 5 -4 -4 -8 4 -7 24 3 17 9 31 13 31 9
0 -5 6 3 13 17 8 15 20 24 30 22 9 -2 17 1 17 6 0 6 6 10 13 9 38 -1 58 4 51
14 -4 7 1 7 16 -1 15 -8 20 -8 16 -1 -6 10 6 15 19 9 2 -2 11 6 20 17 9 11 14
14 10 7 -7 -14 82 33 103 55 15 14 15 14 52 17 14 0 31 5 39 10 9 6 12 5 7 -2
-4 -7 3 -7 24 1 30 11 41 27 19 27 -6 0 -9 7 -5 15 3 8 0 15 -7 15 -13 0 -52
40 -39 41 4 0 -3 4 -16 10 -13 5 -21 13 -17 18 3 5 -4 12 -15 16 -11 3 -20 13
-20 20 0 8 -10 21 -22 29 -12 9 -19 16 -16 16 4 0 -4 12 -17 26 -14 15 -25 31
-25 36 0 5 -4 6 -10 3 -6 -3 -7 1 -4 9 3 9 1 16 -5 16 -6 0 -11 7 -11 15 0 9
-7 18 -15 21 -8 4 -15 12 -15 19 0 6 -9 20 -20 30 -11 10 -20 24 -20 32 0 7
-5 13 -11 13 -6 0 -8 7 -5 16 3 8 2 12 -4 9 -6 -3 -14 4 -19 17 -5 13 -16 30
-25 37 -9 7 -13 17 -10 22 3 5 0 9 -6 9 -6 0 -9 4 -6 8 3 5 -4 16 -15 25 -10
9 -19 26 -19 37 0 12 -4 18 -10 15 -5 -3 -10 1 -10 9 0 9 -4 16 -10 16 -5 0
-9 3 -8 8 4 16 -14 52 -24 46 -6 -4 -8 -2 -5 4 6 9 -4 35 -54 133 -10 20 -15
40 -11 44 4 5 1 5 -6 1 -8 -5 -14 2 -18 23 -4 17 -10 31 -14 31 -4 0 -11 17
-16 38 -4 20 -8 39 -9 42 -1 3 -5 18 -10 34 -4 16 -14 41 -21 55 -8 14 -14 34
-14 44 0 12 -4 16 -12 11 -9 -5 -9 -2 1 9 9 11 10 17 2 17 -6 0 -11 7 -11 15
0 15 -6 25 -38 60 -7 8 -14 18 -15 22 -1 4 -5 7 -9 5 -5 -1 -8 3 -8 10 0 9 -3
9 -12 0 -7 -7 -27 -12 -45 -12 -20 0 -33 -5 -33 -12 0 -10 -3 -9 -9 1 -7 11
-9 11 -14 0 -3 -10 -12 -7 -31 14 -15 15 -31 27 -36 27 -6 0 -9 4 -8 9 2 5
-12 23 -29 40 -18 17 -33 33 -33 35 0 3 -13 20 -30 38 -16 18 -30 38 -30 45 0
7 -3 13 -8 13 -4 0 -15 18 -25 40 -9 22 -21 40 -27 40 -5 0 -7 7 -4 15 4 8 1
15 -5 15 -6 0 -11 7 -11 15 0 8 -5 15 -11 15 -5 0 -7 5 -4 10 3 6 -1 13 -9 16
-9 3 -14 10 -11 14 3 5 1 11 -5 15 -5 3 -23 -8 -40 -25z"/>
</g>
</svg>
